:FULLY-SPECIFIED
:FORCE-ALL-JOINTS-BE-3DOF
:DEGREES
2752
root -4.26155 14.4883 -28.4755 157.619 -71.97 -160.637
lfemur -46.9007 36.1341 -4.40298
ltibia 55.1899 -0 0
lfoot 4.09734 0.116987 -0.148297
ltoes -17.3137 0 0
rfemur -29.8114 -17.7162 18.8097
rtibia 76.8366 -0 0
rfoot -30.3704 -19.9576 -0.0459184
rtoes -14.4532 0 0
lowerback 15.1072 5.56623 0.883778
upperback -2.57983 7.77299 1.52723
thorax -11.3769 3.66767 -0.795829
lowerneck -3.37248 8.85845 1.72992
upperneck 7.90717 11.6252 1.29774
head 3.20446 5.8477 0.511413
lclavicle -1.50191e-14 -1.69625e-14 -2.58996e-31
lhumerus -3.62661 9.18532 82.9585
lradius 94.2806 -0 0
lwrist -18.6891 0 0
lhand -40.2205 28.8813 0.0141823
lfingers 7.12502 -0 0
lthumb -13.18 58.4386 0.0147771
rclavicle -1.50191e-14 -1.69625e-14 -2.58996e-31
rhumerus -52.2849 48.2603 -102.355
rradius 108.884 -0 0
rwrist -81.4852 0 0
rhand 1.56423 -27.9983 0.0944002
rfingers 7.12502 -0 0
rthumb 27.0801 -55.9752 0.11585
2753
root -4.25527 14.4915 -28.4822 157.42 -72.116 -160.434
lfemur -46.8423 36.084 -4.38612
ltibia 55.1535 -0 0
lfoot 4.06823 0.128438 -0.150913
ltoes -17.3402 0 0
rfemur -29.7891 -17.6905 18.8026
rtibia 76.7841 -0 0
rfoot -30.3474 -19.9651 -0.0462416
rtoes -14.4645 0 0
lowerback 15.0914 5.56207 0.881819
upperback -2.58398 7.76701 1.52771
thorax -11.3723 3.66517 -0.792234
lowerneck -3.3788 8.8384 1.71746
upperneck 7.91727 11.5983 1.30617
head 3.20858 5.83429 0.514707
lclavicle -1.49824e-14 -1.69314e-14 -2.69171e-31
lhumerus -3.69882 9.19516 82.9699
lradius 94.1746 -0 0
lwrist -18.6855 0 0
lhand -40.2127 28.8856 0.0143962
lfingers 7.12502 -0 0
lthumb -13.1725 58.4432 0.0150048
rclavicle -1.49824e-14 -1.69314e-14 -2.69171e-31
rhumerus -52.2505 48.187 -102.299
rradius 108.78 -0 0
rwrist -81.3894 0 0
rhand 1.53645 -28.0062 0.0960242
rfingers 7.12502 -0 0
rthumb 27.0534 -55.9857 0.117831
2754
root -4.24894 14.4947 -28.489 157.218 -72.2625 -160.226
lfemur -46.7836 36.0335 -4.36932
ltibia 55.117 -0 0
lfoot 4.03893 0.140006 -0.153538
ltoes -17.367 0 0
rfemur -29.7667 -17.6646 18.7955
rtibia 76.7313 -0 0
rfoot -30.3242 -19.9725 -0.0465554
rtoes -14.4757 0 0
lowerback 15.0757 5.55787 0.879836
upperback -2.58812 7.76097 1.52818
thorax -11.3677 3.66264 -0.78861
lowerneck -3.38514 8.81824 1.70492
upperneck 7.92738 11.5713 1.31464
head 3.21271 5.8208 0.518019
lclavicle -1.49451e-14 -1.69e-14 -2.79497e-31
lhumerus -3.77096 9.20459 82.9812
lradius 94.0682 -0 0
lwrist -18.6819 0 0
lhand -40.2048 28.8899 0.0146101
lfingers 7.12502 -0 0
lthumb -13.165 58.4478 0.0152325
rclavicle -1.49451e-14 -1.69e-14 -2.79497e-31
rhumerus -52.2159 48.1136 -102.243
rradius 108.676 -0 0
rwrist -81.2927 0 0
rhand 1.50851 -28.0143 0.0976527
rfingers 7.12502 -0 0
rthumb 27.0265 -55.9962 0.119817
2755
root -4.24256 14.4979 -28.4959 157.011 -72.4097 -160.014
lfemur -46.7248 35.9827 -4.35259
ltibia 55.0805 -0 0
lfoot 4.00946 0.151692 -0.15617
ltoes -17.394 0 0
rfemur -29.7443 -17.6386 18.7884
rtibia 76.6781 -0 0
rfoot -30.3008 -19.9799 -0.04686
rtoes -14.487 0 0
lowerback 15.0598 5.55363 0.877831
upperback -2.59227 7.75488 1.52866
thorax -11.3631 3.66008 -0.78496
lowerneck -3.39151 8.79797 1.6923
upperneck 7.93751 11.5441 1.32314
head 3.21685 5.80724 0.521349
lclavicle -1.49072e-14 -1.68682e-14 -2.89972e-31
lhumerus -3.84302 9.21361 82.9925
lradius 93.9613 -0 0
lwrist -18.6784 0 0
lhand -40.1969 28.8942 0.0148239
lfingers 7.12502 -0 0
lthumb -13.1573 58.4525 0.0154603
rclavicle -1.49072e-14 -1.68682e-14 -2.89972e-31
rhumerus -52.181 48.04 -102.186
rradius 108.57 -0 0
rwrist -81.1952 0 0
rhand 1.48041 -28.0224 0.0992855
rfingers 7.12502 -0 0
rthumb 26.9995 -56.0069 0.121807
2756
root -4.23612 14.5012 -28.5028 156.799 -72.5573 -159.798
lfemur -46.6658 35.9315 -4.33592
ltibia 55.0438 -0 0
lfoot 3.9798 0.163495 -0.158811
ltoes -17.4213 0 0
rfemur -29.7218 -17.6124 18.7814
rtibia 76.6246 -0 0
rfoot -30.2773 -19.9872 -0.0471554
rtoes -14.4982 0 0
lowerback 15.0439 5.54937 0.875804
upperback -2.59642 7.74874 1.52913
thorax -11.3584 3.65751 -0.781282
lowerneck -3.3979 8.77761 1.67959
upperneck 7.94766 11.5168 1.33168
head 3.221 5.79362 0.524697
lclavicle -1.48686e-14 -1.6836e-14 -3.00595e-31
lhumerus -3.915 9.22222 83.0038
lradius 93.854 -0 0
lwrist -18.6749 0 0
lhand -40.1889 28.8985 0.0150375
lfingers 7.12502 -0 0
lthumb -13.1496 58.4572 0.0156881
rclavicle -1.48686e-14 -1.6836e-14 -3.00595e-31
rhumerus -52.1459 47.9662 -102.129
rradius 108.465 -0 0
rwrist -81.0968 0 0
rhand 1.45215 -28.0306 0.100923
rfingers 7.12502 -0 0
rthumb 26.9723 -56.0176 0.123803
2757
root -4.22962 14.5045 -28.5097 156.583 -72.7055 -159.577
lfemur -46.6066 35.8799 -4.31932
ltibia 55.0071 -0 0
lfoot 3.94997 0.175414 -0.16146
ltoes -17.4488 0 0
rfemur -29.6993 -17.5862 18.7743
rtibia 76.5708 -0 0
rfoot -30.2536 -19.9944 -0.0474416
rtoes -14.5093 0 0
lowerback 15.028 5.54506 0.873755
upperback -2.60057 7.74254 1.52961
thorax -11.3538 3.65491 -0.777577
lowerneck -3.40431 8.75714 1.6668
upperneck 7.95782 11.4894 1.34026
head 3.22515 5.77992 0.528063
lclavicle -1.48294e-14 -1.68035e-14 -3.11365e-31
lhumerus -3.9869 9.23042 83.0151
lradius 93.7462 -0 0
lwrist -18.6714 0 0
lhand -40.1809 28.9028 0.0152511
lfingers 7.12502 -0 0
lthumb -13.1419 58.4618 0.0159159
rclavicle -1.48294e-14 -1.68035e-14 -3.11365e-31
rhumerus -52.1106 47.8922 -102.073
rradius 108.358 -0 0
rwrist -80.9975 0 0
rhand 1.42373 -28.0389 0.102564
rfingers 7.12502 -0 0
rthumb 26.945 -56.0285 0.125803
